<?xml version="1.0" encoding="utf-8"?>
<svg xmlns="http://www.w3.org/2000/svg" viewBox="0 0 500 500" xmlns:bx="https://boxy-svg.com">
  <defs>
    <pattern id="pattern-1" viewBox="0 0 100 100" patternUnits="userSpaceOnUse" preserveAspectRatio="none" width="100" height="100" bx:pinned="true">
      <path style="fill: none; stroke: rgb(138, 40, 255);" d="M 20.655 7.775 C 18.694 8.755 16.749 9.612 14.848 10.562 C 13.448 11.262 12.175 12.034 10.899 12.885 C 9.993 13.489 9.352 13.974 8.596 14.73 C 8.077 15.249 7.467 15.814 7.215 16.328 C 7.085 16.593 6.08 17.988 6.454 18.362 C 7.671 19.579 9.749 18.484 11.441 19.399 C 11.858 19.624 12.41 19.302 12.72 19.56 C 13.252 20.003 14.741 19.698 15.233 20.19 C 16.347 21.304 16.177 23.235 16.984 24.85 C 18.246 27.378 22.153 26.578 24.572 26.436 C 24.885 26.418 24.365 27.029 24.229 27.312 C 24.059 27.665 24.162 28.213 23.967 28.648 C 23.31 30.111 23.503 31.655 22.861 32.937 C 21.377 35.903 23.908 38.888 23.908 42.036"/>
      <path style="fill: none; stroke: rgb(138, 40, 255);" d="M 43.809 12.151 C 43.809 12.569 43.268 12.496 43.056 12.706 C 41.963 13.797 40.855 14.627 39.35 15.38 C 38.09 16.01 36.851 17.431 35.498 17.883 C 33.124 18.674 30.391 20.203 28.297 21.599 C 26.055 23.094 23.443 23.509 22.313 25.697 C 22.017 26.271 23.322 26.733 23.691 26.903 C 25.357 27.67 27.537 27.557 29.384 28.018 C 33.191 28.97 37.42 28.227 41.231 29.18 C 43.084 29.643 45.195 29.024 47.038 29.644 C 47.658 29.853 48.488 29.437 49.109 29.644 C 50.734 30.186 53.626 30.082 54.728 31.18 C 55.396 31.847 54.076 34.108 53.901 34.631 C 53.183 36.785 52.397 38.928 51.421 40.88 C 50.636 42.451 50.651 44.546 49.848 46.1 C 49.421 46.925 50.061 48.377 49.631 49.19 C 48.592 51.151 49.66 56.094 50.911 57.345 C 51.095 57.529 52.153 59.778 51.687 60.15 C 50.855 60.816 50.28 62.414 49 63.268 C 47.822 64.053 46.633 64.714 45.77 65.577 C 44.775 66.572 42.948 66.823 41.821 67.668 C 37.182 71.147 31.236 72.579 26.258 75.566 C 24.855 76.407 22.988 77.951 21.38 78.353 C 20.131 78.665 17.788 79.795 16.793 80.645 C 16.456 80.934 15.038 82.183 14.796 82.183"/>
      <path style="fill: none; stroke: rgb(138, 40, 255);" d="M 9.491 8.459 C 9.491 14.871 16.011 18.331 20.704 21.851 C 26.917 26.51 35.724 30.29 43.468 31.839 C 46.133 32.372 48.755 33.741 51.366 34.394 C 54.376 35.146 56.783 37.005 59.401 38.314 C 61.885 39.556 60.068 43.816 59.493 45.543 C 58.755 47.759 56.827 49.679 56.077 51.93 C 55.598 53.367 54.925 55.131 54.234 56.539 C 53.533 57.965 53.251 60.157 54.008 61.588 C 54.882 63.239 57.081 64.387 58.728 64.936 C 61.85 65.977 64.879 67.348 68.104 68.142 C 70.959 68.844 74.019 69.63 75.759 71.079 C 76.553 71.741 75.713 74.009 75.258 74.853 C 73.702 77.737 73.014 80.702 71.137 82.955 C 70.529 83.684 70.255 85.528 69.157 85.528"/>
      <path style="fill: none; stroke: rgb(138, 40, 255);" d="M 84.936 26.905 C 84.936 28.022 83.363 29.381 82.783 30.502 C 80.735 34.462 78.023 38.702 76.646 43.031 C 76.159 44.56 74.651 49.101 75.998 50.448 C 76.12 50.57 76.044 51.214 76.172 51.342 C 77.59 52.764 78.995 54.512 78.995 56.856 C 78.995 57.31 79.19 58.256 78.995 58.625 C 78.364 59.817 78.108 61.272 77.66 62.613 C 76.52 66.035 73.628 69.823 71.621 72.834 C 69.99 75.28 68.372 77.826 66.75 80.247 C 66.253 80.988 65.424 81.94 65.155 82.749 C 64.722 84.047 63.869 85.819 64.479 87.221 C 64.785 87.923 68.151 89.487 66.677 90.223 C 57.646 94.726 46.108 94.967 36 96.651 C 33.452 97.076 31.035 97.66 28.566 98.277 C 27.402 98.568 25.629 98.784 24.657 99.432 C 24.129 99.784 21.734 100.103 21.734 100.626 C 21.734 100.829 21.851 100.231 21.851 100.028 C 21.851 99.954 22.113 99.224 22.235 99.102"/>
      <path style="fill: none; stroke: rgb(138, 40, 255);" d="M 84.042 29.461 C 84.042 31.44 83.025 33.188 82.114 34.949 C 80.907 37.282 79.493 39.565 77.977 41.838 C 77.515 42.532 77.163 43.581 76.583 44.161 C 75.27 45.475 73.952 46.947 72.867 48.575 C 71.764 50.228 68.8 52.087 68.296 53.768 C 68.224 54.009 68.782 53.608 69.033 53.608 C 69.446 53.608 70.155 53.049 70.653 52.783 C 71.942 52.096 73.69 51.887 74.849 51.274 C 75.076 51.154 75.909 50.408 76.044 50.524 C 76.082 50.557 75.423 51.394 75.339 51.553 C 74.475 53.174 72.946 54.502 71.885 56.093 C 70.059 58.833 67.505 60.706 65.149 63.062 C 64.096 64.115 63.188 65.453 61.897 66.314 C 59.613 67.837 58.445 70.787 57.093 72.274 C 56.71 72.696 53.742 71.396 53.377 71.274 C 52.754 71.067 51.951 71.206 51.306 71.042 C 48.212 70.257 45.136 69.576 42.015 68.951 C 34.47 67.443 26.89 65.862 19.25 64.77 C 15.233 64.196 11.125 63.791 7.171 62.912 C 3.911 62.187 0.544 62.094 -2.558 61.06 C -3.042 60.899 -5.787 59.781 -5.288 59.281 C -4.673 58.664 -3.673 58.107 -2.853 57.287"/>
      <path style="fill: none; stroke: rgb(138, 40, 255);" d="M 22.39 39.248 C 22.39 39.975 23.431 40.537 23.919 41.033 C 25.796 42.937 28.077 44.859 30.519 46.487 C 36.556 50.511 44.216 52.287 51.618 52.287 C 54.339 52.287 58.585 52.104 60.669 50.251 C 61.724 49.314 62.782 47.97 63.534 47.068 C 64.461 45.959 63.08 44.941 62.565 44.372 C 61.242 42.907 59.261 42.102 57.817 40.658 C 57.097 39.938 55.814 38.693 56.552 37.299 C 60.651 29.557 67.375 22.687 70.22 14.152 C 70.86 12.231 71.925 9.056 71.149 6.844 C 68.26 -1.394 57.414 4.11 51.971 6.529 C 50.311 7.267 48.865 7.928 47.325 8.852 C 45.195 10.13 42.182 11.791 41.108 13.94 C 39.791 16.574 45.328 16.847 46.509 17.084 C 47.909 17.364 49.712 17.084 51.155 17.084 C 54.794 17.084 58.433 17.084 62.072 17.084 C 63.425 17.084 65.512 16.719 66.676 17.3 C 66.968 17.446 67.641 17.11 67.908 17.3 C 68.151 17.474 67.571 17.833 67.301 17.96 C 66.386 18.391 64.787 20.044 63.921 20.91 C 61.337 23.494 58.417 26.333 57.207 29.927 C 55.821 34.045 55.368 38.015 55.368 42.577 C 55.368 43.851 54.966 45.934 55.368 47.144 C 55.658 48.014 55.665 49.079 56.059 49.839 C 56.296 50.299 55.9 51.293 56.276 51.67 C 56.629 52.024 56.548 53.493 56.943 53.809 C 57.539 54.286 58.122 57.236 58.122 58.062"/>
      <path style="fill: none; stroke: rgb(138, 40, 255);" d="M 13.326 37.366 C 13.326 43.035 15.76 49.139 21.006 51.852 C 23.077 52.923 25.663 53.573 27.928 54.328 C 30.24 55.098 32.8 55.602 35.109 56.18 C 36.318 56.482 37.92 57.252 39.052 57.806 C 39.423 57.988 39.827 58.596 40.198 58.719 C 41.188 59.05 42.466 60.268 42.972 61.246 C 46.377 67.83 44.358 76.066 42.934 83.184 C 42.587 84.919 42.208 86.626 41.541 88.294 C 40.422 91.09 39.425 94.157 38.521 96.869 C 38.381 97.287 37.337 98.876 37.685 99.255 C 37.829 99.411 39.083 98.677 39.218 98.609 C 40.516 97.959 41.765 97.884 43.08 97.265 C 43.197 97.21 43.975 96.876 44.09 96.98 C 44.378 97.243 43.973 98.589 43.872 98.789 C 43.494 99.544 43.929 101.489 44.304 101.801 C 45.422 102.732 47.869 102.091 48.549 101.226 C 48.63 101.123 48.627 99.44 48.549 99.362 C 48.207 99.02 48.413 98.063 48.13 97.528 C 47.428 96.201 47.272 94.601 46.588 93.206 C 45.089 90.148 42.781 86.361 39.694 84.303 C 38.061 83.214 35.973 81.975 34.584 80.586"/>
      <path style="fill: none; stroke: rgb(138, 40, 255);" d="M 34.816 14.941 C 25.774 14.941 16.626 16.689 8.084 19.536 C 5.847 20.282 3.767 21.137 1.615 21.853 C 1.21 21.988 -0.54 22.81 -0.345 23.061 C -0.182 23.27 1.66 23.061 1.884 23.061 C 4.13 23.061 6.375 23.061 8.621 23.061 C 15.821 23.061 23.022 23.061 30.223 23.061 C 31.846 23.061 33.815 22.782 35.334 23.293 C 36.02 23.524 37.021 23.045 37.602 23.51 C 37.906 23.754 37.167 25.01 37.075 25.194 C 36.249 26.847 36.122 28.72 35.239 30.486 C 34.569 31.825 34.139 33.661 33.845 35.132 C 33.382 37.446 31.986 39.552 31.522 41.869 C 30.935 44.804 30.487 47.741 29.896 50.696 C 28.784 56.255 32.797 60.563 37.308 62.818 C 39.583 63.956 40.857 66.887 41.924 68.865 C 42.117 69.223 41.924 70.152 41.924 70.594 C 41.924 72.89 40.767 74.597 39.791 76.484 C 38.92 78.167 38.24 80.005 37.356 81.81 C 35.733 85.125 33.007 88.655 33.007 92.576 C 33.007 93.778 32.829 95.771 33.697 96.638 C 34.38 97.322 35.173 97.934 36.006 98.49 C 37.607 99.557 39.789 99.836 41.581 100.348 C 44.217 101.101 47.222 101.439 49.944 101.742 C 54.206 102.215 58.4 102.207 62.72 102.207"/>
      <path style="fill: none; stroke: rgb(15, 135, 227);" d="M 81.661 16.624 C 82.154 18.528 84.086 19.295 85.164 20.389 C 85.594 20.826 85.132 22.37 85.132 22.717 C 85.132 23.866 85.685 26.889 85.132 27.829 C 84.902 28.219 84.694 30.003 84.947 30.504 C 85.678 31.956 86.998 31.68 87.929 32.959 C 88.574 33.844 88.472 36.496 88.472 37.781"/>
      <path style="fill: none; stroke: rgb(15, 135, 227);" d="M 92.157 42.362 C 91.253 43.303 89.337 43.189 88.073 43.611 C 85.192 44.571 82.065 44.961 79.014 45.469 C 66.399 47.571 53.337 48.953 40.454 48.953 C 36.157 48.953 31.977 49.041 27.91 48.024 C 27.001 47.797 24.738 47.386 24.266 46.442 C 23.009 43.928 25.747 41.942 27.264 39.666 C 27.72 38.982 28.745 38.538 29.123 37.808 C 29.606 36.873 30.81 36.092 31.112 35.384 C 31.139 35.321 31.777 34.229 31.512 33.964 C 31.493 33.945 31.091 33.796 31.163 33.737 C 31.969 33.07 33.206 33.285 34.178 32.756 C 35.668 31.945 36.799 31.607 37.852 30.726 C 38.349 30.31 39.246 30.268 39.631 29.884 C 41.086 28.433 42.93 27.294 44.839 26.198 C 45.321 25.922 45.571 25.36 46.169 25.36"/>
      <path style="fill: none; stroke: rgb(15, 135, 227);" d="M 73.96 15.306 C 73.96 17.024 72.754 18.432 71.981 19.979 C 70.487 22.966 69 25.805 67.906 29.026 C 67.621 29.864 66.65 31.888 67.224 32.964 C 68.054 34.52 70.234 35.694 72.192 36.187 C 73.502 36.517 74.799 37.078 76.121 37.343 C 78.467 37.812 80.979 37.803 83.322 38.272 C 86.322 38.872 89.756 38.504 92.846 38.504 C 93.514 38.504 95.625 38.267 96.097 38.721 C 96.118 38.741 95.38 39.759 95.313 39.793 C 93.942 40.479 92.032 42.392 90.93 43.494 C 89.362 45.062 87.329 46.283 85.588 47.675 C 81.405 51.021 77.388 54.47 73.276 57.896 C 71.058 59.745 69.245 61.927 67.237 63.935 C 64.567 66.605 61.713 69.179 60.066 72.468 C 59.2 74.199 62.116 74.642 63.043 75.105 C 63.186 75.177 65.771 75.255 65.504 75.522 C 65.125 75.901 63.72 75.919 63.079 76.132 C 60.695 76.927 57.957 77.335 55.414 77.758 C 49.011 78.826 42.382 79.913 36.134 81.475 C 34.02 82.003 31.88 82.653 29.884 83.318 C 29.158 83.56 28.201 84.089 27.872 84.089"/>
      <path style="fill: none; stroke: rgb(15, 135, 227);" d="M 40.073 14.911 C 40.348 14.911 41.73 14.653 41.803 14.726 C 42.456 15.379 40.645 17.031 40.498 17.474 C 39.833 19.468 36.688 22.333 34.923 23.746 C 33.107 25.198 31.401 26.874 29.58 28.391 C 24.165 32.904 17.803 36.219 12.855 41.167 C 10.865 43.157 6.414 46.658 7.294 50.127 C 8.058 53.138 13.468 54.834 15.889 55.237 C 17.436 55.495 18.973 55.943 20.534 56.167 C 22.662 56.47 24.905 56.132 27.038 56.399 C 29.518 56.709 32.431 56.989 34.936 56.631 C 36.541 56.402 38.239 56.482 39.814 56.167 C 40.868 55.956 42.253 55.485 43.241 55.485 C 43.425 55.485 42.875 55.485 42.692 55.485 C 42.247 55.485 42.825 55.468 41.886 55.7 C 41.33 55.838 40.671 55.747 40.133 55.926 C 37.915 56.664 35.505 57.028 33.178 57.545 C 27.865 58.726 22.621 59.72 17.382 61.03 C 15.909 61.398 12.95 61.677 12.033 62.594 C 11.958 62.669 13.865 63.991 14.386 64.166 C 16.838 64.99 19.364 66.177 21.953 67.041 C 27.035 68.734 32.787 68.529 37.981 69.828 C 40.684 70.504 43.251 70.49 44.875 72.174 C 45.22 72.532 43.961 73.607 43.789 73.93 C 43.218 75.002 42.292 75.86 41.555 76.229 C 41.417 76.298 41.196 77.089 40.956 77.331"/>
      <path style="fill: none; stroke: rgb(15, 135, 227);" d="M 44.818 84.006 C 43.93 86.67 43.013 89.284 42.031 91.903 C 41.489 93.347 41.063 94.824 40.637 96.317 C 40.213 97.801 39.671 99.233 39.243 100.73 C 39.101 101.226 39.184 101.888 38.778 102.207 C 38.54 102.394 37.259 102.207 36.92 102.207 C 36.556 102.207 37.423 101.679 37.681 101.421 C 38.217 100.885 38.697 100.224 39.074 99.563 C 40.389 97.263 41.512 94.803 42.559 92.362 C 45.631 85.193 48.451 77.937 50.921 70.527 C 58.861 46.706 64.906 22.065 70.433 -2.411 C 71.238 -5.975 72.212 -9.526 72.988 -13.097 C 73.659 -16.182 73.842 -20.175 75.079 -23.085 C 75.139 -23.226 76.713 -23.113 76.937 -23.113 C 78.641 -23.113 80.344 -23.113 82.048 -23.113 C 82.437 -23.113 83.334 -23.286 83.674 -23.113 C 83.787 -23.055 83.674 -21.689 83.674 -21.568 C 83.674 -20.345 84.286 -18.653 84.603 -17.387 C 85.931 -12.073 89.827 -7.866 92.965 -3.682 C 94.383 -1.792 95.905 -0.072 97.379 1.893 C 98.475 3.355 99.118 5.373 99.934 7.004 C 103.41 13.957 105.208 21.466 108.064 28.606 C 108.615 29.983 109.943 32.161 111.287 32.759 C 111.491 32.85 112.737 33.181 112.985 32.933 C 113.287 32.631 114.446 31.807 115.193 32.198 C 116.027 32.634 116.12 33.384 116.585 33.85 C 116.965 34.229 116.802 35.917 116.802 36.532 C 116.802 39.449 115.909 41.62 115.012 44.287 C 111.702 54.124 106.754 62.752 99.222 70.284 C 98.191 71.315 97.349 72.58 96.203 73.536 C 86.727 81.432 76.797 88.828 67.167 96.532 C 65.005 98.262 62.396 99.731 59.966 100.946 C 59.56 101.149 57.784 101.983 57.784 102.285 C 57.784 102.403 57.692 102.005 57.784 101.931 C 57.999 101.758 57.86 101.432 58.045 101.254 C 58.41 100.902 58.535 98.531 58.288 97.803 C 57.231 94.696 56.812 90.974 55.984 87.661 C 55.411 85.369 54.576 82.981 53.668 80.712 C 53.182 79.496 52.795 77.676 52.055 76.571 C 51.397 75.589 51.05 74.227 50.677 73.108 C 49.491 69.549 47.385 64.72 49.398 60.694 C 49.861 59.77 49.797 58.396 50.605 57.681 C 51.243 57.117 52.762 56.655 53.443 56.088 C 53.816 55.779 54.679 56.059 55.03 55.767 C 55.759 55.16 57.384 55.821 58.081 55.127 C 58.776 54.434 58.394 52.59 58.94 51.5 C 59.275 50.831 58.94 49.261 58.94 48.485 C 58.94 43.365 55.607 39.941 51.185 38.439 C 49.778 37.961 45.774 36.261 44.397 37.638 C 43.793 38.242 43.728 38.891 44.38 39.544 C 44.636 39.799 45.8 40.084 45.8 40.367 C 45.8 40.546 45.779 39.969 45.905 39.843 C 46.224 39.523 46.323 39.047 46.711 38.659 C 47.638 37.732 47.844 36.697 48.845 35.571 C 49.466 34.874 49.921 34.18 50.346 33.593 C 50.564 33.293 51.466 33.135 51.784 32.815 C 53.122 31.474 51.845 29.582 50.72 28.457 C 50.323 28.06 50.119 27.457 49.574 27.094 C 47.857 25.95 46.392 24.882 44.696 23.61 C 43.955 23.054 42.871 22.988 42.16 22.455 C 41.265 21.783 40.044 20.824 38.908 20.597 C 36.418 20.098 33.542 18.589 31.01 17.577 C 28.136 16.427 25.261 15.695 22.416 14.557 C 19.283 13.304 15.747 12.566 12.66 11.537 C 11.599 11.184 9.427 10.838 8.686 10 C 8.339 9.607 9.402 9.302 9.521 9.196 C 10.96 7.916 13.455 7.452 15.435 6.957 C 17.715 6.387 20.133 6.131 22.404 5.563 C 23.278 5.344 24.317 5.782 25.191 5.563 C 25.803 5.41 28.596 4.812 29.15 5.331 C 29.27 5.443 27.849 6.615 27.498 6.794 C 25.924 7.597 23.409 8.399 22.286 9.518"/>
      <path style="fill: none; stroke: rgb(15, 135, 227);" d="M 24.485 27.896 C 24.131 27.896 23.954 28.501 23.714 28.738 C 22.678 29.76 20.982 31.55 19.601 32.586 C 16.231 35.113 13.256 38.467 10.309 41.413 C 8.608 43.114 7.64 45.765 6.36 47.685 C 5.4 49.125 4.314 51.305 4.314 53.06 C 4.314 53.52 3.896 53.916 4.121 54.346 C 4.685 55.421 5.858 55.277 7.304 55.277 C 9.827 55.277 12.35 55.277 14.873 55.277 C 15.713 55.277 17.791 54.988 18.326 55.604 C 18.715 56.053 17.891 56.856 17.742 57.154 C 17.045 58.546 15.91 59.942 14.818 61.397 C 11.389 65.97 6.402 69.135 2.972 73.708 C 2.12 74.844 0.835 75.702 0.2 76.93 C 0.084 77.153 -0.515 78.213 -0.777 78.297 C -0.993 78.366 -0.449 77.986 -0.289 77.826 C -0.015 77.552 0.566 76.7 0.842 76.286 C 2.054 74.466 3.441 72.742 4.79 70.943 C 5.668 69.773 5.994 68.177 6.881 66.994 C 9.542 63.447 11.847 58.05 12.921 53.754 C 13.256 52.413 13.821 51.044 13.821 49.683 C 13.821 49.486 13.952 48.601 13.821 48.461 C 12.707 47.262 9.474 49.288 8.077 49.759 C 3.516 51.294 -0.216 54.786 -4.215 57.185 C -5.617 58.026 -7.508 58.941 -8.362 60.437 C -8.57 60.801 -8.362 62.098 -8.362 62.528 C -8.362 64.438 -8.362 66.348 -8.362 68.258 C -8.362 68.938 -8.591 69.951 -7.835 70.312 C -6.983 70.718 -6.08 70.442 -5.169 70.745 C -2.597 71.603 1.659 71.131 4.355 70.745 C 6.413 70.451 8.56 70.539 10.627 70.281 C 18.747 69.266 26.903 68.043 35.017 67.029 C 37.246 66.75 39.543 66.236 41.753 65.867 C 43.486 65.579 45.377 65.979 47.096 65.635 C 47.791 65.496 50.358 64.906 51.061 65.403 C 51.077 65.414 49.361 67.236 48.985 67.361 C 48.201 67.623 46.616 69.04 45.988 69.669 C 44.698 70.958 42.256 72.115 40.645 72.921 C 36.633 74.927 32.798 77.475 28.798 79.657 C 22.887 82.882 16.663 85.725 10.68 88.716 C 9.15 89.481 7.364 90.507 6.034 91.504 C 5.228 92.108 3.981 92.396 3.247 93.13 C 2.959 93.417 1.708 94.574 1.92 94.844 C 2.118 95.096 2.797 94.664 2.909 94.628 C 3.837 94.333 4.89 94.423 5.867 94.179 C 9.411 93.293 13.364 92.777 17.017 92.32 C 22.418 91.645 27.854 90.676 33.277 89.998 C 37.445 89.477 41.675 89.661 45.821 89.068 C 50.053 88.464 54.371 87.907 58.642 87.907"/>
      <path style="fill: none; stroke: rgb(15, 135, 227);" d="M 38.214 37.235 C 38.214 37.826 39.403 39.046 39.751 39.743 C 41.089 42.421 42.583 46.997 45.7 48.609 C 47.198 49.384 49.444 50.732 50.552 51.717 C 50.882 52.011 51.447 52.658 51.096 52.927 C 49.282 54.317 46.901 55.107 44.593 55.684 C 42.74 56.148 40.655 55.914 38.786 56.381 C 37.349 56.74 35.829 56.719 34.392 57.078 C 33.741 57.241 32.714 56.788 32.122 57.078 C 31.654 57.307 31.026 57.617 30.628 57.617 C 30.257 57.617 31.307 57.991 31.679 57.991 C 32.438 57.991 32.903 58.44 33.635 58.44 C 35.564 58.44 37.533 59.1 39.423 59.37 C 45.286 60.207 51.357 60.334 57.309 60.996 C 62.674 61.592 68.398 61.228 73.802 61.228 C 83.248 61.228 92.695 61.228 102.141 61.228 C 105.935 61.228 109.729 61.228 113.523 61.228 C 114.201 61.228 116.873 60.898 117.299 61.634 C 117.338 61.701 115.51 62.785 115.241 62.876 C 112.928 63.654 110.397 65.113 108.06 66.115 C 106.587 66.746 104.911 66.947 103.414 67.508 C 99.397 69.015 95.265 70.322 91.103 71.457 C 85.944 72.864 80.945 74.924 75.772 76.335 C 67.85 78.496 60.047 82.178 52.543 85.394 C 50.453 86.29 48.211 87.283 46.039 87.717 C 45.092 87.907 44.166 88.418 43.251 88.646 C 43.243 88.648 42.506 89.15 42.486 89.053 C 42.483 89.036 43.416 88.551 43.472 88.519 C 44.552 87.92 45.855 87.414 47.143 87.157 C 52.758 86.034 58.269 84.137 64.1 84.137 C 65.616 84.137 67.131 83.905 68.686 83.905 C 68.834 83.905 70.069 83.881 70.072 83.905 C 70.104 84.266 69.198 84.277 69.04 84.593 C 68.711 85.251 66.068 86.418 65.223 86.629 C 63.458 87.071 61.762 88.011 59.881 88.488 C 57.522 89.086 55.11 89.505 52.753 90.094 C 51.598 90.382 50.169 90.769 49.039 90.769 C 48.871 90.769 48.101 90.879 47.989 90.769 C 47.821 90.604 48.822 89.792 48.936 89.553 C 49.641 88.076 51.39 87.329 52.637 86.332 C 53.774 85.423 55.048 84.43 56.353 83.777 C 58.662 82.623 60.77 80.988 63.09 79.828"/>
      <path style="fill: none; stroke: rgb(15, 135, 227);" d="M 59.991 15.032 C 58.769 15.032 57.938 15.539 56.657 15.539 C 56.508 15.539 56.957 15.539 57.106 15.539 C 57.336 15.539 57.527 15.405 57.751 15.278 C 58.492 14.86 59.264 14.416 59.871 13.809 C 61.754 11.926 65.539 10.623 67.981 9.402 C 69.651 8.567 71.27 7.897 72.839 7.086 C 73.121 6.94 74.068 6.994 74.068 6.676 C 74.068 6.374 73.856 7.244 73.715 7.511 C 72.532 9.745 70.081 10.913 68.388 12.606 C 65.012 15.982 60.617 18.318 56.773 21.201 C 54.731 22.732 52.555 25.176 50.315 26.296 C 49.846 26.531 49.482 27.308 49.124 27.721 C 48.533 28.402 46.786 29.739 45.687 30.471 C 36.471 36.615 26.56 41.116 16.186 45.106 C 9.821 47.554 3.053 49.155 -3.558 50.681 C -4.604 50.922 -7.682 51.265 -8.362 52.074 C -8.438 52.165 -8.362 53.933 -8.362 53.933 C -8.362 53.933 -8.317 52.75 -8.189 52.634 C -6.64 51.239 -4.439 50.191 -2.666 48.924 C -1.509 48.098 -0.17 47.744 1.05 47.066 C 5.754 44.453 11.185 42.743 16.381 41.259 C 27.198 38.168 38.056 36.459 49.134 34.755 C 55.599 33.76 62.108 32.84 68.646 32.432 C 76.417 31.946 84.063 30.341 91.875 30.341 C 98.084 30.341 104.772 29.343 110.923 30.574 C 111.943 30.778 115.185 30.745 115.73 31.72 C 115.905 32.032 115.002 32.208 114.853 32.208 C 114.131 32.208 112.447 33.27 111.656 33.586 C 106.651 35.589 101.14 36.343 95.86 37.303 C 80.432 40.108 65.049 40.787 49.402 40.787 C 47.279 40.787 45.227 40.765 43.131 40.555 C 41.805 40.423 40.502 40.256 39.182 40.091 C 38.366 39.989 37.655 39.526 36.859 39.394 C 35.554 39.176 36.694 39.66 35.698 39.161 C 32.935 37.78 34.684 37.116 36.329 35.882 C 37.928 34.684 39.687 33.885 41.44 32.862 C 43.85 31.456 40.773 32.804 43.53 31.701 C 44.746 31.215 45.838 30.61 47.015 30.075 C 47.906 29.67 48.873 29.456 49.802 29.146 C 53.45 27.93 56.982 26.426 60.72 25.429 C 68.2 23.434 75.617 21.202 83.252 19.854 C 94.644 17.844 106.18 15.441 117.777 15.441 C 117.874 15.441 117.569 15.391 117.485 15.441 C 117.145 15.644 117.007 15.68 116.6 15.884 C 115.789 16.289 114.904 16.526 114.045 16.813 C 111.772 17.57 109.428 18.361 107.076 18.903 C 99.12 20.739 91.202 22.207 83.15 23.549 C 59.636 27.468 35.997 29.851 12.303 32.144 C 5.474 32.805 -1.585 32.956 -8.362 34.002 C -8.389 34.006 -8.362 36.325 -8.362 36.325 C -8.362 36.325 -8.374 35.914 -8.362 35.9 C -8.192 35.696 -7.087 35.702 -6.892 35.674 C -4.645 35.353 -2.113 34.645 0.076 34.048 C 10.523 31.199 21.251 29.308 31.9 27.312 C 53.875 23.191 76.03 20.54 98.102 17.091 C 110.643 15.131 123.309 13.419 135.965 12.445 C 144.318 11.803 152.928 11.105 161.284 11.748 C 163.186 11.895 165.042 11.996 166.859 12.677 C 167.108 12.771 168.48 13.148 168.717 13.607 C 168.989 14.133 168.349 15.002 168.036 15.315 C 166.709 16.642 164.128 17.873 162.461 18.799 C 154.982 22.955 146.506 26.444 138.303 28.788 C 110.912 36.614 83.202 43.813 55.144 48.765 C 48.708 49.9 42.174 50.855 35.632 50.855 C 34.239 50.855 30.351 51.462 29.143 50.391 C 28.597 49.906 31.578 48.252 31.736 48.173 C 35.352 46.365 38.836 44.064 42.421 42.134 C 48.256 38.992 54.439 36.33 60.54 33.772 C 68.799 30.308 77.028 26.795 85.627 24.248 C 102.422 19.271 119.199 14.525 136.266 10.543 C 145.947 8.284 155.803 6.914 165.534 4.968 C 173.329 3.409 181.209 2.112 188.995 0.554 C 191.983 -0.043 195.506 -1.304 198.512 -1.304 C 198.784 -1.304 197.968 -1.304 197.696 -1.304 C 197.159 -1.304 196.621 -1.304 196.083 -1.304 C 194.796 -1.304 193.425 -0.983 192.134 -0.839 C 187.803 -0.358 183.475 0.475 179.126 1.019 C 166.077 2.65 153.088 4.197 140.102 6.362 C 102.977 12.549 65.931 19.617 28.371 22.622 C 19.798 23.308 11.191 23.319 2.587 23.319 C 0.046 23.319 -2.383 23.005 -4.846 22.389 C -5.476 22.232 -6.581 22.149 -6.936 21.46 C -7.222 20.907 -5.546 20.317 -5.161 20.207 C -1.864 19.265 1.251 17.791 4.595 16.955 C 8.768 15.912 12.752 14.099 16.907 13.006 C 26.139 10.576 35.62 8.644 45.014 6.966 C 71.064 2.315 97.066 -1.762 123.527 -3.022 C 130.122 -3.336 136.935 -3.611 143.504 -2.79 C 145.275 -2.568 148.219 -1.954 149.063 -0.265 C 149.373 0.355 148.759 1.259 148.382 1.636 C 147.143 2.875 146.153 4.329 144.897 5.585 C 139.401 11.082 132.862 15.476 126.547 19.987 C 121.601 23.52 116.222 26.246 110.983 29.279 C 94.227 38.98 76.465 46.666 59.415 55.76 C 57.722 56.662 55.986 57.39 54.305 58.315 C 37.575 67.516 58.692 55.736 49.892 60.87 C 46.313 62.957 38.398 66.816 39.439 72.02 C 39.8 73.827 43.677 74.699 45.014 75.272 C 50.78 77.743 57.858 77.827 64.061 77.827 C 72.315 77.827 80.673 78.219 88.916 77.827 C 105.642 77.03 122.49 74.301 138.393 69 C 145.382 66.67 151.857 62.964 158.835 60.638 C 160.25 60.166 161.729 59.316 162.551 58.082 C 162.759 57.77 163.238 57.521 163.016 57.047 C 162.866 56.727 162.062 56.588 161.793 56.456 C 160.508 55.827 159.292 55.549 157.859 55.31 C 151.691 54.282 145.819 53.916 139.508 53.916 C 131.403 53.916 123.325 55.142 115.351 56.471 C 107.344 57.806 99.295 59.046 91.425 61.117 C 82.342 63.507 73.331 66.16 64.247 68.55 C 55.801 70.773 47.495 73.379 39.16 75.984 C 34.879 77.322 30.475 78.538 26.384 80.397 C 23.829 81.558 20.791 82.236 18.486 83.881 C 18.019 84.215 16.044 85.38 16.435 86.119 C 16.747 86.708 18.121 87.013 18.712 87.249 C 21.353 88.305 24.277 88.389 27.074 88.643 C 38.508 89.682 50.057 88.199 61.453 87.249 C 98.614 84.152 135.461 76.296 171.557 67.272 C 182.194 64.613 192.868 62.064 203.381 58.91 C 206.203 58.063 208.952 57.053 211.743 56.123 C 212.72 55.797 213.746 55.742 214.518 54.961 C 214.75 54.727 214.518 53.074 214.518 52.638 C 214.518 52.366 214.712 51.084 214.518 50.889 C 214.052 50.422 212.694 50.396 212.107 50.228 C 210.164 49.673 208.118 49.108 206.067 48.834 C 192.912 47.081 219.305 51.032 203.512 48.602 C 198.125 47.773 192.459 48.153 187.02 47.905 C 177.708 47.482 168.462 47.837 159.145 48.138 C 118.879 49.437 78.629 54.208 38.82 60.217 C 27.039 61.995 15.269 64.104 3.512 66.024 C -0.195 66.629 -4.795 66.874 -8.335 68.114 C -8.477 68.164 -8.362 70.246 -8.362 70.437 C -8.362 72.373 -8.362 74.309 -8.362 76.244 C -8.362 76.643 -8.567 77.778 -8.362 78.103 C -8.294 78.212 -7.137 78.103 -7.009 78.103 C -5.163 78.103 -3.476 77.839 -1.666 77.638 C 6.289 76.754 14.443 75.466 22.26 73.689 C 33.868 71.051 45.699 69.498 57.335 66.953 C 79.626 62.077 102.146 58.215 124.466 53.48 C 142.77 49.598 161.406 46.591 179.519 41.866 C 187.01 39.912 194.424 38.137 201.818 35.826 C 203.501 35.301 204.89 34.83 206.464 34.2 C 206.712 34.101 207.696 33.62 207.626 33.51 C 207.339 33.058 205.577 33.375 205.168 33.293 C 202.121 32.684 199.017 32.596 195.876 32.596 C 183.85 32.596 171.877 32.848 159.872 33.293 C 149.554 33.675 139.241 34.855 128.977 35.848 C 95.082 39.128 61.587 44.222 27.932 49.321 C 19.234 50.639 10.591 52.289 1.916 53.734 C -1.277 54.266 -5.253 54.289 -8.305 55.36 C -8.512 55.433 -8.362 57.924 -8.362 58.148 C -8.362 60.316 -8.362 62.484 -8.362 64.652 C -8.362 65.27 -8.608 66.559 -8.362 67.12 C -8.229 67.424 -6.728 67.653 -6.435 67.702 C -4.591 68.009 -2.747 68.442 -0.86 68.631 C 7.428 69.46 16.21 68.524 24.46 67.934 C 35.987 67.111 47.342 65.098 58.838 63.985 C 68.902 63.012 78.815 61.318 88.803 59.804 C 105.263 57.31 121.695 54.607 138.049 51.442 C 152.874 48.572 167.71 45.725 182.416 42.383 C 187.301 41.272 192.197 40.408 197.05 39.131 C 198.622 38.717 200.583 38.495 202.16 37.969 C 202.824 37.748 203.585 37.306 204.251 37.04 C 204.494 36.943 205.186 36.755 204.941 36.663 C 200.314 34.939 194.61 34.747 189.707 33.882 C 178.369 31.881 166.845 30.96 155.329 30.166 C 134.788 28.749 114.337 29.133 93.772 28.772 C 76.197 28.464 58.622 28.54 41.043 28.54 C 36.71 28.54 32.367 28.464 28.035 28.54 C 25.092 28.591 22.151 28.72 19.208 28.772 C 10.034 28.933 0.793 28.727 -8.362 29.469 C -8.379 29.47 -8.362 30.747 -8.362 30.863 C -8.362 32.411 -8.362 33.96 -8.362 35.508 C -8.362 37.909 -8.362 40.309 -8.362 42.709 C -8.362 43.195 -8.624 44.611 -8.362 45.032 C -8.119 45.424 -6.154 45.264 -5.74 45.264 C -2.732 45.264 0.319 45.407 3.32 45.264 C 10.801 44.908 18.227 43.253 25.619 42.245 C 31.67 41.42 37.737 40.619 43.738 39.457 C 54.066 37.458 64.534 36.123 74.864 34.115 C 110.632 27.16 146.517 20.717 182.181 13.209 C 190.923 11.368 199.667 9.587 208.43 7.866 C 210.473 7.465 213.024 7.923 214.518 6.472 C 214.938 6.064 214.518 3.504 214.518 2.756 C 214.518 -0.419 214.518 -3.594 214.518 -6.768 C 214.518 -7.375 214.858 -9.633 214.518 -10.02 C 214.347 -10.215 212.816 -10.02 212.533 -10.02 C 209.724 -10.02 206.959 -10.002 204.171 -9.788 C 193.927 -9 183.56 -8.663 173.276 -8.162 C 149.413 -6.998 125.534 -5.214 101.732 -3.284 C 82.014 -1.685 62.216 -0.934 42.498 0.665 C 30.826 1.611 19.122 2.14 7.423 2.756 C 4.403 2.915 1.384 3.065 -1.636 3.22 C -3.979 3.34 -6.13 3.244 -8.362 3.917 C -8.38 3.922 -8.362 5.775 -8.362 5.775 C -8.362 5.775 -8.362 4.284 -8.362 4.149 C -8.362 2.409 -8.362 0.668 -8.362 -1.073"/>
      <path style="fill: none; stroke: rgb(183, 66, 216);" d="M 54.846 72.821 C 51.994 69.236 53.77 61.803 55.326 57.525 C 55.867 56.036 56.326 54.572 56.952 53.111 C 57.671 51.433 58.273 49.65 59.042 48.001 C 59.934 46.091 60.845 44.287 61.83 42.426 C 71.212 24.705 82.862 8.677 95.279 -7.051 C 98.141 -10.676 101.07 -14.287 104.106 -17.736 C 105.671 -19.515 106.611 -22.101 108.752 -23.113 C 109.662 -23.543 110.765 -23.113 111.772 -23.113 C 114.637 -23.113 117.502 -23.113 120.366 -23.113 C 120.56 -23.113 119.965 -23.033 119.828 -22.896 C 119.518 -22.586 119.254 -22.668 118.899 -22.431 C 117.996 -21.829 116.837 -21.216 115.879 -20.805 C 112.742 -19.461 109.766 -16.739 107.052 -14.766 C 98.272 -8.38 89.867 -1.296 81.5 5.676 C 67.722 17.158 53.187 27.939 40.153 40.287 C 35.589 44.611 31.189 49.273 27.145 53.992 C 25.49 55.922 24.322 58.275 22.732 60.263 C 22.609 60.417 21.934 62.219 21.552 61.837 C 19.333 59.618 19.718 56.213 19.101 53.126 C 17.824 46.741 20.58 41.464 24.444 36.634 C 25.698 35.066 27.238 33.84 28.625 32.453 C 29.051 32.027 30.14 30.634 30.661 30.634 C 30.797 30.634 30.396 30.706 30.272 30.761 C 30.032 30.867 29.754 31.018 29.524 31.133 C 28.651 31.57 27.737 32.47 27.014 33.193 C 24.775 35.432 21.517 37.12 18.884 39 C 12.683 43.43 5.808 47.142 -0.86 50.847 C -2.334 51.666 -3.768 52.649 -5.274 53.402 C -6.226 53.878 -7.792 54.222 -8.362 55.261 C -8.789 56.037 -8.362 58.316 -8.362 59.209 C -8.362 61.997 -8.362 64.784 -8.362 67.572 C -8.362 68.302 -8.71 70.142 -8.362 70.793 C -8.317 70.878 -7.745 70.439 -7.702 70.344 C -7.396 69.666 -6.503 68.418 -5.872 67.708 C -3.82 65.401 -1.379 62.248 1.441 60.755 C 1.658 60.64 3.134 59.369 3.503 59.821 C 3.663 60.017 3.532 60.647 3.737 60.851 C 5.118 62.228 5.741 64.746 6.677 66.516 C 8.173 69.342 10.457 72.212 12.575 74.33 C 14.446 76.201 15.34 74.92 16.627 73.847 C 17.474 73.142 19.163 72.443 18.959 72.443"/>
      <path style="fill: none; stroke: rgb(183, 66, 216);" d="M 72.192 61.985 C 73.185 61.985 72.167 57.769 72.102 57.575 C 70.646 53.209 67.266 49.719 63.972 46.425 C 60.779 43.233 56.915 40.342 52.822 38.295 C 50.577 37.173 48.544 35.924 46.318 34.811 C 41.031 32.168 33.747 31.336 28.239 33.172 C 26.718 33.679 25.161 35.812 24.522 37.114 C 22.552 41.134 21.741 47.371 27.233 49.22 C 29.624 50.024 33.22 49.854 35.766 49.43 C 38.426 48.986 41.211 49.264 43.896 48.965 C 45.97 48.735 48.399 48.769 50.4 48.268 C 51.047 48.107 51.861 48.478 52.491 48.268 C 53.134 48.054 54.247 47.804 54.939 47.804 C 54.948 47.804 54.276 48.025 54.156 48.094 C 53.505 48.468 52.733 48.595 51.945 48.753 C 49.841 49.175 47.829 49.786 45.7 50.141 C 41.407 50.856 37.232 52.21 32.925 52.928 C 31.07 53.237 28.572 53.478 26.885 54.322 C 25.953 54.788 21.942 55.546 21.942 56.401"/>
      <path style="fill: none; stroke: rgb(183, 66, 216);" d="M 22.61 82.604 C 22.61 80.373 21.312 77.829 21.959 75.278 C 23.562 68.959 28.325 63.414 31.483 57.624 C 35.166 50.872 37.441 43.699 39.846 36.486 C 40.698 33.93 40.851 31.145 41.704 28.588 C 43.467 23.299 44.869 17.347 45.653 11.863 C 45.912 10.047 46.502 7.923 47.046 6.288 C 47.101 6.123 47.256 4.587 47.397 4.587 C 47.559 4.587 47.149 4.801 47.052 4.932 C 46.873 5.176 47.031 5.493 46.783 5.741 C 45.986 6.538 44.614 7.193 43.412 8.395 C 40.377 11.431 36.415 13.302 33.424 16.293 C 30.044 19.673 26.198 22.874 22.274 25.817 C 19.69 27.755 17.754 30.801 15.537 33.018 C 14.539 34.016 13.397 35.956 12.982 37.199 C 12.791 37.773 12.037 38.179 11.852 38.764 C 11.625 39.476 11.229 40.588 10.795 41.022 C 10.332 41.483 10.809 42.992 10.383 43.325 C 10.028 43.603 9.497 45.601 9.497 46.019"/>
      <path style="fill: none; stroke: rgb(183, 66, 216);" d="M 61.09 85.258 C 60.721 85.292 61.167 83.54 61.202 83.439 C 61.333 83.063 61.077 82.553 61.202 82.176 C 61.752 80.529 62.134 78.798 62.822 77.079 C 63.403 75.625 64.469 74.482 65.145 73.13 C 68.084 67.253 72.494 61.823 76.527 56.637 C 86.932 43.26 97.62 29.993 110.441 18.774 C 113.226 16.338 115.895 13.755 118.804 11.574 C 119.321 11.185 121.063 9.498 121.552 9.498 C 121.646 9.498 121.349 9.449 121.269 9.498 C 121.019 9.65 120.88 10.008 120.621 10.145 C 120.029 10.46 119.477 10.87 118.867 11.276 C 117.139 12.429 115.39 13.918 113.757 15.225 C 108.943 19.076 103.457 22.389 98.193 25.678 C 94.534 27.965 91.027 30.991 87.74 33.808 C 79.718 40.684 70.773 46.592 62.421 52.856 C 59.918 54.733 56.848 56.326 54.111 57.239 C 53.793 57.345 51.494 58.213 51.078 57.688 C 50.717 57.231 50.625 56.301 51.151 55.805 C 51.229 55.732 51.458 54.852 51.385 54.773 C 51.248 54.626 50.001 55.774 50.001 55.829"/>
      <path style="fill: none; stroke: rgb(183, 66, 216);" d="M 42.46 63.916 C 41.29 59.494 39.999 53.627 40.853 48.506 C 43 35.62 50.248 24.759 58.739 15.056 C 61.446 11.963 64.708 9.067 68.03 6.694 C 69.506 5.64 70.781 4.273 72.444 3.442 C 73.636 2.846 75.262 1.816 76.618 1.816 C 76.872 1.816 78.04 1.655 78.176 1.958 C 78.797 3.339 77.717 5.411 77.247 6.586 C 75.402 11.199 71.908 15.243 68.885 19.13 C 63.16 26.49 56.097 32.685 49.837 39.571 C 46.638 43.09 43.431 46.674 40.081 50.024 C 36.226 53.88 32.355 58.099 29.163 62.568 C 27.94 64.28 26.702 66.069 25.679 67.91 C 24.993 69.145 24.446 70.377 23.821 71.627 C 23.515 72.238 23.124 73.302 23.124 73.95 C 23.124 74.521 22.148 76.25 22.659 76.871 C 23.068 77.368 24.482 75.763 24.728 75.64 C 26.91 74.549 28.801 70.792 31.298 69.47 C 31.675 69.27 33.657 66.887 33.542 66.766 C 33.22 66.428 33.031 67.95 32.965 68.004 C 31.954 68.824 31.597 70.505 30.761 71.505 C 30.436 71.895 30.051 73.446 29.641 73.446"/>
      <path style="fill: none; stroke: rgb(0, 0, 0);" d="M 9.533 26.025 C 10.604 26.025 12.468 26.808 13.607 27.17 C 15.706 27.838 18.252 27.3 20.438 27.854 C 23.486 28.627 27.26 29.081 30.23 29.081 C 30.462 29.081 29.738 29.189 29.532 29.081 C 29.091 28.85 28.707 29.016 28.288 28.809 C 27.053 28.196 25.175 28.056 24.237 28.807 C 22.914 29.866 22.039 31.67 20.741 32.969 C 18.715 34.994 16.094 35.465 13.474 36.974 C 10.949 38.427 7.627 39.379 4.328 39.379 C 3.958 39.379 5.033 39.105 5.403 39.105 C 6.188 39.105 7.082 38.905 7.933 38.905 C 10.677 38.905 13.263 39.137 15.924 39.137 C 17.446 39.137 19.824 39.37 21.194 39.827 C 21.827 40.038 22.836 39.535 23.432 39.827 C 24.864 40.53 27.505 40.044 29.172 40.044 C 30.742 40.044 32.907 40.266 34.236 39.602 C 34.526 39.457 35.031 39.745 35.322 39.602 C 36.388 39.08 37.747 39.021 38.725 38.533 C 38.926 38.432 39.518 38.495 39.664 38.348 C 39.962 38.05 40.6 37.726 40.897 37.424 C 41.578 36.73 38.717 36.413 38.245 36.665 C 36.302 37.706 33.149 36.96 31.67 38.442 C 31.455 38.658 29.215 39.211 29.747 39.754 C 30.208 40.224 31.617 39.438 32.162 39.187 C 33.78 38.442 36.249 37.988 37.569 36.688 C 37.659 36.6 37.76 37.471 37.686 37.611 C 37.468 38.028 37.074 39.827 38.168 39.261 C 40.425 38.094 43.77 37.509 45.421 35.863 C 45.583 35.701 47.334 34.99 47.348 35.004 C 48.209 35.865 48.515 37.679 49.343 38.711 C 50.024 39.56 48.502 40.072 48.291 40.493 C 48.055 40.964 47.402 41.015 47.031 41.345 C 46.011 42.249 44.472 43.243 42.994 44.007 C 41.965 44.54 40.876 45.947 39.773 46.315 C 38.186 46.844 36.583 48.132 35.127 49.102 C 31.499 51.521 26.991 54.513 23.064 55.839 C 21.043 56.52 19.325 57.586 17.716 58.272 C 17.575 58.332 16.274 58.669 16.218 58.626 C 15.82 58.323 16.886 57.119 16.979 56.938 C 18.298 54.387 21.375 52.873 24.033 51.101 C 26.636 49.366 30.455 48.764 33.325 47.617 C 39.523 45.138 45.896 42.962 52.14 40.88 C 53.963 40.273 55.69 39.621 57.35 38.857 C 58.024 38.546 59.159 38.424 59.64 38.021 C 59.717 37.957 61 37.67 61.191 37.861 C 61.529 38.199 61.39 39.725 61.158 40.191 C 60.291 41.927 58.964 44.236 57.346 45.093 C 56.821 45.371 56.25 46.7 55.801 46.7 C 55.573 46.7 56.224 46.529 56.425 46.421 C 56.952 46.139 57.477 45.911 58 45.649 C 59.633 44.833 61.26 43.742 62.954 43.177 C 64.563 42.641 66.186 40.868 67.599 39.925 C 71.645 37.228 73.427 34.349 75.326 30.755 C 75.53 30.368 77.044 27.461 76.354 26.77 C 75.718 26.134 73.301 27.597 73.099 27.829 C 72.865 28.097 72.222 27.977 71.914 28.325 C 71.343 28.971 70.286 29.566 69.434 30.321 C 68.521 31.131 67.611 32.436 66.91 33.488 C 65.493 35.613 63.488 37.342 62.032 39.527 C 61.203 40.77 60.021 42.62 60.021 44.176 C 60.021 44.35 59.891 45.464 60.021 45.573 C 60.464 45.942 61.454 45.888 61.91 45.382 C 63.189 43.963 65.325 43.224 66.713 41.66 C 67.74 40.501 69.008 39.95 69.941 39.015 C 70.002 38.954 70.768 38.81 70.521 38.498 C 70.438 38.394 69.001 39.572 68.811 39.762 C 67.816 40.758 65.538 42.351 66.815 43.632 C 67.584 44.403 70.441 42.828 71.048 42.524 C 73.219 41.439 75.225 40.178 77.377 39.132 C 78.201 38.731 79.353 37.09 80.013 36.503 C 80.356 36.198 80.634 35.012 81.079 34.885 C 81.276 34.829 81.099 35.347 80.949 35.488 C 80.705 35.718 80.541 36.106 80.325 36.498 C 79.875 37.314 79.159 38.662 78.554 39.372 C 78.485 39.453 77.884 39.847 78.002 39.997 C 78.488 40.616 79.877 39.517 80.447 39.32 C 81.919 38.811 83.62 37.352 85.084 36.374 C 85.394 36.167 86.702 35.186 86.968 35.39 C 87.46 35.767 85.94 37.739 85.829 37.961 C 85.08 39.46 82.431 43.023 81.468 43.023"/>
    </pattern>
  </defs>
  <rect x="-49.452" y="-31.812" width="597.368" height="557.795" style="stroke: rgb(0, 0, 0); fill: rgb(255, 5, 0);"/>
  <text style="fill: rgb(255, 255, 255); font-family: Ubuntu; font-size: 53px; paint-order: stroke; stroke: rgb(255, 255, 255); stroke-miterlimit: 4.99; white-space: pre;" transform="matrix(5.137847, 0, 0, 5.42798, -321.762665, -581.220093)" x="65.932" y="147.395">The </text>
  <text style="fill: rgb(191, 0, 194); font-family: Arial, sans-serif; font-size: 28px; white-space: pre;" x="127.013" y="329.43"> </text>
  <rect x="416.819" y="295.36" width="84.217" height="103.122" style="stroke: rgb(0, 0, 0); stroke-width: 1; fill: rgb(255, 255, 255);"/>
  <rect x="282.704" y="378.087" width="84.217" height="103.122" style="stroke: rgb(0, 0, 0); stroke-width: 1; fill: rgb(255, 255, 255);"/>
  <rect x="146.089" y="288.705" width="84.217" height="103.122" style="stroke: rgb(0, 0, 0); stroke-width: 1; fill: rgb(255, 255, 255);"/>
  <rect x="24.116" y="344.267" width="84.217" height="103.122" style="stroke: rgb(0, 0, 0); fill: rgb(255, 255, 255);"/>
  <text style="fill: rgb(255, 12, 0); font-family: Tinos; font-size: 86px; white-space: pre;" x="305.108" y="452.301">2</text>
  <text style="fill: rgb(255, 1, 0); font-family: Tinos; font-size: 87px; white-space: pre;" x="432.298" y="373.629">N</text>
  <text style="fill: rgb(255, 0, 4); font-family: Tinos; font-size: 87px; white-space: pre;" x="161.019" y="367.31">H</text>
  <text style="fill: rgb(255, 0, 18); font-family: Tinos; font-size: 86px; white-space: pre;" x="38.446" y="420.658">C</text>
</svg>